ModelForces
version=1
nRows=19
nColumns=21
inDegrees=no

This file contains the forces exerted on a model during a simulation.

A force is a generalized force, meaning that it can be either a force (N) or a torque (Nm).

Units are S.I. units (second, meters, Newtons, ...)
Angles are in degrees.

endheader
time	muscle1	muscle2	contactForce.block.force.X	contactForce.block.force.Y	contactForce.block.force.Z	contactForce.block.torque.X	contactForce.block.torque.Y	contactForce.block.torque.Z	contactForce.ground.force.X	contactForce.ground.force.Y	contactForce.ground.force.Z	contactForce.ground.torque.X	contactForce.ground.torque.Y	contactForce.ground.torque.Z	ground_prescribedForce_fx	ground_prescribedForce_fy	ground_prescribedForce_fz	ground_prescribedForce_px	ground_prescribedForce_py	ground_prescribedForce_pz
      1.37234462	    546.85325700	    367.16856652	     56.64706004	    425.50256681	    -46.30257420	      9.88167838	     -1.43509619	     -8.34455976	    -56.64706004	   -425.50256681	     46.30257420	    -22.48363067	      1.91527896	     -2.66011018	   -201.87155109	      0.00000000	      0.00000000	      0.03430862	      0.00000000	      0.00000000
      1.38310467	    543.78051611	    364.34248172	     58.99314943	    448.64010990	    -47.70738087	     10.00764996	     -1.54409001	     -8.93754570	    -58.99314943	   -448.64010990	     47.70738087	    -23.30568474	      2.06505004	     -2.60719603	   -203.45435117	      0.00000000	      0.00000000	      0.03457762	      0.00000000	      0.00000000
      1.38917237	    542.40766520	    362.53666726	     61.57612540	    471.14113275	    -49.06905888	     10.08396764	     -1.62936494	     -9.51783502	    -61.57612540	   -471.14113275	     49.06905888	    -24.07179694	      2.20106153	     -2.54611256	   -204.34690778	      0.00000000	      0.00000000	      0.03472931	      0.00000000	      0.00000000
      1.39524006	    541.53972517	    360.75604949	     64.33050943	    498.46772898	    -50.26028496	     10.13790146	     -1.69380451	    -10.24384509	    -64.33050943	   -498.46772898	     50.26028496	    -24.98751986	      2.32883988	     -2.46477525	   -205.23946440	      0.00000000	      0.00000000	      0.03488100	      0.00000000	      0.00000000
      1.40268477	    541.36428443	    358.80522574	     67.20859093	    535.59796770	    -51.63528788	     10.19037306	     -1.80919078	    -11.26806919	    -67.20859093	   -535.59796770	     51.63528788	    -26.21919905	      2.50817121	     -2.34475910	   -206.33457837	      0.00000000	      0.00000000	      0.03506712	      0.00000000	      0.00000000
      1.41012947	    542.44194770	    357.16968217	     69.33715803	    572.82936049	    -53.38241979	     10.26961688	     -1.99688685	    -12.31812280	    -69.33715803	   -572.82936049	     53.38241979	    -27.45264699	      2.72233873	     -2.21591926	   -207.42969235	      0.00000000	      0.00000000	      0.03525324	      0.00000000	      0.00000000
      1.41827490	    545.41215758	    355.57671205	     67.85036954	    608.89384437	    -53.72574591	     10.31853136	     -2.23872651	    -13.48404916	    -67.85036954	   -608.89384437	     53.72574591	    -28.66832163	      2.90962079	     -2.08644952	   -208.62788255	      0.00000000	      0.00000000	      0.03545687	      0.00000000	      0.00000000
      1.42642032	    550.89421729	    353.57256021	     62.46353281	    635.60542521	    -52.56883730	     10.38088931	     -2.50573217	    -14.51110852	    -62.46353281	   -635.60542521	     52.56883730	    -29.63418426	      3.03249932	     -1.99701325	   -209.82607276	      0.00000000	      0.00000000	      0.03566051	      0.00000000	      0.00000000
      1.43147701	    555.80936392	    351.80107034	     53.80731129	    646.01474370	    -46.86876303	     10.24058881	     -2.37531766	    -15.19253623	    -53.80731129	   -646.01474370	     46.86876303	    -30.08227318	      2.78238301	     -1.97577417	   -210.56991063	      0.00000000	      0.00000000	      0.03578693	      0.00000000	      0.00000000
      1.43487424	    560.33069765	    349.66280847	     32.28297099	    649.95759962	    -28.32426261	      9.45827864	     -1.39010279	    -16.32023810	    -32.28297099	   -649.95759962	     28.32426261	    -30.31936510	      1.62863579	     -1.98285145	   -211.06964143	      0.00000000	      0.00000000	      0.03587186	      0.00000000	      0.00000000
      1.43827146	    567.33994785	    345.05747312	     14.95447836	    651.05101830	    -13.33004683	      8.92057711	     -0.61145320	    -17.12053592	    -14.95447836	   -651.05101830	     13.33004683	    -30.51593288	      0.71568492	     -2.01571441	   -211.56937223	      0.00000000	      0.00000000	      0.03595679	      0.00000000	      0.00000000
      1.44304087	    581.82939096	    334.32202938	      6.38131908	    647.67455054	     -5.89854527	      9.00207408	     -0.25519239	    -17.23473423	     -6.38131908	   -647.67455054	      5.89854527	    -30.75840830	      0.29327794	     -2.12038892	   -212.27095117	      0.00000000	      0.00000000	      0.03607602	      0.00000000	      0.00000000
      1.44781028	    598.39977198	    322.56488285	      3.75612876	    639.59897845	     -3.58371888	      9.53884730	     -0.15233429	    -16.81381393	     -3.75612876	   -639.59897845	      3.58371888	    -31.02121575	      0.17136160	     -2.30618431	   -212.97253012	      0.00000000	      0.00000000	      0.03619526	      0.00000000	      0.00000000
      1.45582971	    619.86097377	    310.26309619	      2.37383242	    620.32083352	     -2.34774522	     10.98715336	     -0.10108783	    -15.58162832	     -2.37383242	   -620.32083352	      2.34774522	    -31.67168869	      0.11064758	     -2.80687081	   -214.15218699	      0.00000000	      0.00000000	      0.03639574	      0.00000000	      0.00000000
      1.46384915	    627.81784767	    308.62020034	      2.01619708	    600.46485324	     -2.02206008	     12.81279243	     -0.09068580	    -14.12205771	     -2.01619708	   -600.46485324	      2.02206008	    -32.65154864	      0.09805348	     -3.47129133	   -215.33184386	      0.00000000	      0.00000000	      0.03659623	      0.00000000	      0.00000000
      1.47447103	    626.06677838	    313.08738536	      2.24295671	    615.43410705	     -2.19207757	     15.10969850	     -0.10011076	    -12.36700792	     -2.24295671	   -615.43410705	      2.19207757	    -35.18952883	      0.11016281	     -5.35673333	   -216.89432021	      0.00000000	      0.00000000	      0.03686178	      0.00000000	      0.00000000
      1.48508551	    622.86950828	    315.16875159	      3.20763591	    649.24576711	     -2.91527374	     16.52704870	     -0.13814227	    -11.41207694	     -3.20763591	   -649.24576711	      2.91527374	    -37.42353989	      0.15901426	     -6.93175264	   -218.45570748	      0.00000000	      0.00000000	      0.03712714	      0.00000000	      0.00000000
      1.49569999	    622.51570813	    313.61834642	      5.09402412	    656.13543466	     -4.29144790	     16.64300037	     -0.22727606	    -11.61093360	     -5.09402412	   -656.13543466	      4.29144790	    -37.42359955	      0.26995405	     -6.53080710	   -220.01709475	      0.00000000	      0.00000000	      0.03739250	      0.00000000	      0.00000000
      1.50631447	    622.96186241	    312.77869675	      7.69718968	    635.20396211	     -6.88800849	     15.45899709	     -0.38275813	    -12.90969261	     -7.69718968	   -635.20396211	      6.88800849	    -35.17128621	      0.43561854	     -4.24360868	   -221.57848202	      0.00000000	      0.00000000	      0.03765786	      0.00000000	      0.00000000
